<svg width="99" height="90" viewBox="0 0 99 90" fill="none" xmlns="http://www.w3.org/2000/svg">
<path d="M50.688 42.588L53.136 17.964L70.416 4.428L80.208 22.428L78.048 26.316L66.96 19.98L53.136 44.028L50.688 42.588ZM50.112 42.444L47.664 43.884L27.504 29.484L24.48 7.74L44.928 8.17199L47.232 12.06L36.288 18.396L50.112 42.444ZM4.32 49.068L14.976 31.644H19.44V44.316H47.232V47.196L24.624 57.42L4.32 49.068ZM85.536 60.156H81.072V47.484H53.28V44.604L75.888 34.38L96.192 42.588L85.536 60.156ZM49.824 49.068L47.376 73.836L30.096 87.228L20.304 69.372L22.464 65.484L33.408 71.82L47.376 47.772L49.824 49.068ZM76.032 84.06L55.584 83.628L53.28 79.74L64.368 73.26L50.4 49.356L52.848 47.916L73.008 62.316L76.032 84.06Z" fill="#1D293D"/>
</svg>
